<svg width="251" height="322" viewBox="0 0 251 322" fill="none" xmlns="http://www.w3.org/2000/svg">
<path d="M63.6846 85.464C63.0079 82.4091 66.3738 80.0691 69.0016 81.7676L139.103 127.077C139.853 127.562 140.389 128.315 140.602 129.183L180.052 290.114C180.847 293.358 177.081 295.766 174.47 293.684L96.9029 231.825C96.277 231.326 95.8411 230.627 95.668 229.845L63.6846 85.464Z" fill="#FEE600" stroke="black" stroke-width="3"/>
<path d="M141.135 126.523L182.746 49.8035C184.304 46.9305 188.601 47.5716 189.252 50.7744L219.785 200.842C219.926 201.536 219.853 202.256 219.577 202.908L181.822 291.807C180.485 294.957 175.887 294.513 175.177 291.165L140.788 128.918C140.616 128.104 140.739 127.255 141.135 126.523Z" fill="#016E51" stroke="black" stroke-width="3"/>
<line x1="39.8263" y1="51.8636" x2="11.8263" y2="28.8636" stroke="#FFA0AE" stroke-width="10"/>
<line x1="29" y1="72" y2="72" stroke="#FFA0AE" stroke-width="10"/>
<line x1="56.34" y1="37.8122" x2="42.34" y2="1.81223" stroke="#FFA0AE" stroke-width="10"/>
</svg>
