<svg width="64" height="76" viewBox="0 0 64 76" fill="none" xmlns="http://www.w3.org/2000/svg">
<path d="M57.5 53C57.5 58.1747 56.2846 62.8351 54.3455 66.1845C52.3988 69.5469 49.784 71.5 47 71.5C44.216 71.5 41.6012 69.5469 39.6545 66.1845C37.7154 62.8351 36.5 58.1747 36.5 53C36.5 47.8253 37.7154 43.1649 39.6545 39.8155C41.6012 36.4531 44.216 34.5 47 34.5C49.784 34.5 52.3988 36.4531 54.3455 39.8155C56.2846 43.1649 57.5 47.8253 57.5 53Z" fill="white" stroke="#646464"/>
<path d="M25.5 53C25.5 58.1747 24.2846 62.8351 22.3455 66.1845C20.3988 69.5469 17.784 71.5 15 71.5C12.216 71.5 9.60119 69.5469 7.65454 66.1845C5.71538 62.8351 4.5 58.1747 4.5 53C4.5 47.8253 5.71538 43.1649 7.65454 39.8155C9.60119 36.4531 12.216 34.5 15 34.5C17.784 34.5 20.3988 36.4531 22.3455 39.8155C24.2846 43.1649 25.5 47.8253 25.5 53Z" fill="white" stroke="#646464"/>
<path d="M62.5 32C62.5 37.1895 61.5026 41.8633 59.9121 45.221C58.3035 48.6168 56.1796 50.5 54 50.5C51.8204 50.5 49.6965 48.6168 48.0879 45.221C46.4974 41.8633 45.5 37.1895 45.5 32C45.5 26.8105 46.4974 22.1367 48.0879 18.779C49.6965 15.3832 51.8204 13.5 54 13.5C56.1796 13.5 58.3035 15.3832 59.9121 18.779C61.5026 22.1367 62.5 26.8105 62.5 32Z" fill="white" stroke="#646464"/>
<path d="M55.5 49.5C55.5 59.8849 44.6537 68.5 31 68.5C17.3463 68.5 6.5 59.8849 6.5 49.5C6.5 39.1151 17.3463 30.5 31 30.5C44.6537 30.5 55.5 39.1151 55.5 49.5Z" fill="white" stroke="#646464"/>
<path d="M49.5 43C49.5 46.3647 47.4014 49.4775 43.8696 51.7732C40.3427 54.0657 35.4404 55.5 30 55.5C24.5596 55.5 19.6573 54.0657 16.1304 51.7732C12.5986 49.4775 10.5 46.3647 10.5 43C10.5 39.6353 12.5986 36.5225 16.1304 34.2268C19.6573 31.9343 24.5596 30.5 30 30.5C35.4404 30.5 40.3427 31.9343 43.8696 34.2268C47.4014 36.5225 49.5 39.6353 49.5 43Z" fill="#FF0000" stroke="#FFA0AE"/>
<path d="M50.5 31C50.5 34.3647 48.4014 37.4775 44.8696 39.7732C41.3427 42.0657 36.4404 43.5 31 43.5C25.5596 43.5 20.6573 42.0657 17.1304 39.7732C13.5986 37.4775 11.5 34.3647 11.5 31C11.5 27.6353 13.5986 24.5225 17.1304 22.2268C20.6573 19.9343 25.5596 18.5 31 18.5C36.4404 18.5 41.3427 19.9343 44.8696 22.2268C48.4014 24.5225 50.5 27.6353 50.5 31Z" fill="#FF0000" stroke="#FFA0AE"/>
<path d="M37.6332 62.1806C35.5756 65.7445 32.6588 68.3395 29.6273 69.6666C26.5955 70.9939 23.4849 71.0425 20.9709 69.591C18.4569 68.1396 16.9437 65.4214 16.5773 62.1322C16.2108 58.8433 16.9998 55.0198 19.0574 51.4558C21.115 47.8919 24.0319 45.2969 27.0634 43.9698C30.0951 42.6425 33.2057 42.5939 35.7197 44.0454C38.2337 45.4968 39.7469 48.215 40.1134 51.5042C40.4798 54.7931 39.6909 58.6167 37.6332 62.1806Z" fill="#F7FFAB" stroke="#FEE600"/>
<path d="M35.6668 61.1845C33.9455 64.1657 31.5287 66.3452 29.0344 67.4716C26.5391 68.5983 24.007 68.6584 21.9822 67.4894C19.9573 66.3204 18.7434 64.0975 18.4715 61.3731C18.1998 58.6498 18.8789 55.467 20.6001 52.4857C22.3213 49.5045 24.7382 47.325 27.2325 46.1987C29.7278 45.0719 32.2599 45.0118 34.2847 46.1808C36.3096 47.3499 37.5235 49.5727 37.7953 52.2971C38.0671 55.0205 37.388 58.2032 35.6668 61.1845Z" fill="#F7FFAB" stroke="#FEE600"/>
<path d="M22.7798 39.4558C24.8484 43.0388 25.851 46.7568 25.8212 49.857C25.7914 52.9702 24.7299 55.3604 22.793 56.4786C20.8561 57.5969 18.2555 57.3211 15.5444 55.7903C12.8447 54.266 10.126 51.5388 8.0574 47.9558C5.98879 44.3729 4.98625 40.6548 5.01598 37.5547C5.04585 34.4414 6.10731 32.0513 8.04423 30.933C9.98114 29.8147 12.5818 30.0905 15.2929 31.6213C17.9926 33.1456 20.7112 35.8729 22.7798 39.4558Z" fill="white" stroke="#646464"/>
<path d="M20 0L26.9282 11.25H13.0718L20 0Z" fill="#8A510D"/>
<path d="M20 4L26.9282 15.25H13.0718L20 4Z" fill="white"/>
<path d="M42 0L48.9282 11.25H35.0718L42 0Z" fill="#8A510D"/>
<path d="M42 4L48.9282 15.25H35.0718L42 4Z" fill="white"/>
<path d="M63.5 18.5C63.5 19.7787 62.6499 21.0173 61.1032 21.9624C59.5652 22.9024 57.4086 23.5 55 23.5C52.5914 23.5 50.4348 22.9024 48.8968 21.9624C47.3501 21.0173 46.5 19.7787 46.5 18.5C46.5 17.2213 47.3501 15.9827 48.8968 15.0376C50.4348 14.0976 52.5914 13.5 55 13.5C57.4086 13.5 59.5652 14.0976 61.1032 15.0376C62.6499 15.9827 63.5 17.2213 63.5 18.5Z" fill="white" stroke="#646464"/>
<line x1="60.5" y1="22" x2="60.5" y2="19" stroke="#646464"/>
<line x1="50.5" y1="23" x2="50.5" y2="19" stroke="#646464"/>
<line x1="55.5" y1="23" x2="55.5" y2="19" stroke="#646464"/>
<path d="M55.5 70.5C55.5 71.7787 54.6499 73.0173 53.1032 73.9624C51.5652 74.9024 49.4086 75.5 47 75.5C44.5914 75.5 42.4348 74.9024 40.8968 73.9624C39.3501 73.0173 38.5 71.7787 38.5 70.5C38.5 69.2213 39.3501 67.9827 40.8968 67.0376C42.4348 66.0976 44.5914 65.5 47 65.5C49.4086 65.5 51.5652 66.0976 53.1032 67.0376C54.6499 67.9827 55.5 69.2213 55.5 70.5Z" fill="white" stroke="#646464"/>
<line x1="52.5" y1="74" x2="52.5" y2="71" stroke="#646464"/>
<line x1="42.5" y1="75" x2="42.5" y2="71" stroke="#646464"/>
<line x1="47.5" y1="75" x2="47.5" y2="71" stroke="#646464"/>
<path d="M23.5 70.5C23.5 71.7787 22.6499 73.0173 21.1032 73.9624C19.5652 74.9024 17.4086 75.5 15 75.5C12.5914 75.5 10.4348 74.9024 8.89676 73.9624C7.35014 73.0173 6.5 71.7787 6.5 70.5C6.5 69.2213 7.35014 67.9827 8.89676 67.0376C10.4348 66.0976 12.5914 65.5 15 65.5C17.4086 65.5 19.5652 66.0976 21.1032 67.0376C22.6499 67.9827 23.5 69.2213 23.5 70.5Z" fill="white" stroke="#646464"/>
<line x1="20.5" y1="74" x2="20.5" y2="71" stroke="#646464"/>
<line x1="10.5" y1="75" x2="10.5" y2="71" stroke="#646464"/>
<line x1="15.5" y1="75" x2="15.5" y2="71" stroke="#646464"/>
<path d="M53.5 22.5C53.5 27.1429 51.0279 31.3819 46.9607 34.4765C42.8932 37.5713 37.2519 39.5 31 39.5C24.7481 39.5 19.1068 37.5713 15.0393 34.4765C10.9722 31.3819 8.5 27.1429 8.5 22.5C8.5 17.8571 10.9722 13.6181 15.0393 10.5235C19.1068 7.42868 24.7481 5.5 31 5.5C37.2519 5.5 42.8932 7.42868 46.9607 10.5235C51.0279 13.6181 53.5 17.8571 53.5 22.5Z" fill="white" stroke="#646464"/>
<ellipse cx="20.5" cy="19.5" rx="1.5" ry="3.5" fill="black"/>
<ellipse cx="40.5" cy="19.5" rx="1.5" ry="3.5" fill="black"/>
<path d="M30.5 27L34.3971 23.25H26.6029L30.5 27Z" fill="#8A510D"/>
<path d="M30.5 29L31.799 31.25H29.201L30.5 29Z" fill="black"/>
<ellipse cx="31" cy="11" rx="10" ry="6" fill="#8A510D"/>
<ellipse cx="56.5" cy="31.5" rx="5.5" ry="4.5" fill="#8A510D"/>
<ellipse cx="14.5025" cy="44.436" rx="7.29185" ry="4.37511" transform="rotate(-30 14.5025 44.436)" fill="#8A510D"/>
<ellipse cx="31" cy="10.5" rx="8" ry="4.5" fill="#FFA558"/>
<ellipse cx="56.5" cy="31.5" rx="4.5" ry="3.5" fill="#FFA558"/>
<ellipse cx="14.5025" cy="44.0695" rx="5.83348" ry="3.28133" transform="rotate(-30 14.5025 44.0695)" fill="#FFA558"/>
<line x1="30.5" y1="26" x2="30.5" y2="31" stroke="black"/>
<circle cx="32.5" cy="44.5" r="4" fill="#FFD583" stroke="#8A510D"/>
<line x1="29" y1="44.5" x2="36" y2="44.5" stroke="#8A510D"/>
<line x1="32.5" y1="49" x2="32.5" y2="47" stroke="#FFD583"/>
<circle cx="32.5" cy="46.5" r="1.5" fill="#8A510D"/>
<path d="M30 31C30 31.2626 29.8965 31.5227 29.6955 31.7654C29.4945 32.008 29.1999 32.2285 28.8284 32.4142C28.457 32.5999 28.016 32.7472 27.5307 32.8478C27.0454 32.9483 26.5253 33 26 33C25.4747 33 24.9546 32.9483 24.4693 32.8478C23.984 32.7472 23.543 32.5999 23.1716 32.4142C22.8001 32.2285 22.5055 32.008 22.3045 31.7654C22.1035 31.5227 22 31.2626 22 31L26 31H30Z" fill="black"/>
<path d="M30 30C30 30.2626 29.8965 30.5227 29.6955 30.7654C29.4945 31.008 29.1999 31.2285 28.8284 31.4142C28.457 31.5999 28.016 31.7472 27.5307 31.8478C27.0454 31.9483 26.5253 32 26 32C25.4747 32 24.9546 31.9483 24.4693 31.8478C23.984 31.7472 23.543 31.5999 23.1716 31.4142C22.8001 31.2285 22.5055 31.008 22.3045 30.7654C22.1035 30.5227 22 30.2626 22 30L26 30H30Z" fill="white"/>
<path d="M39 31C39 31.2626 38.8965 31.5227 38.6955 31.7654C38.4945 32.008 38.1999 32.2285 37.8284 32.4142C37.457 32.5999 37.016 32.7472 36.5307 32.8478C36.0454 32.9483 35.5253 33 35 33C34.4747 33 33.9546 32.9483 33.4693 32.8478C32.984 32.7472 32.543 32.5999 32.1716 32.4142C31.8001 32.2285 31.5055 32.008 31.3045 31.7654C31.1035 31.5227 31 31.2626 31 31L35 31H39Z" fill="black"/>
<path d="M39 30C39 30.2626 38.8965 30.5227 38.6955 30.7654C38.4945 31.008 38.1999 31.2285 37.8284 31.4142C37.457 31.5999 37.016 31.7472 36.5307 31.8478C36.0454 31.9483 35.5253 32 35 32C34.4747 32 33.9546 31.9483 33.4693 31.8478C32.984 31.7472 32.543 31.5999 32.1716 31.4142C31.8001 31.2285 31.5055 31.008 31.3045 30.7654C31.1035 30.5227 31 30.2626 31 30L35 30H39Z" fill="white"/>
<line x1="16" y1="23.5" x2="9" y2="23.5" stroke="black"/>
<line x1="9.166" y1="18.9035" x2="16.1128" y2="20.5119" stroke="black"/>
<line x1="9.94914" y1="27.5026" x2="15.896" y2="26.8945" stroke="black"/>
<line y1="-0.5" x2="8" y2="-0.5" transform="matrix(1 0 0 -1 45 23)" stroke="black"/>
<line y1="-0.5" x2="8.10046" y2="-0.5" transform="matrix(-0.980089 0.198556 0.255804 0.966729 52.9392 19.3906)" stroke="black"/>
<line y1="-0.5" x2="6.82358" y2="-0.5" transform="matrix(-0.996021 -0.0891197 -0.116076 0.99324 51.8571 28)" stroke="black"/>
<line x1="22.6" y1="56.3" x2="19.6" y2="52.3" stroke="#646464"/>
<line x1="25.584" y1="53.2774" x2="23.584" y2="50.2774" stroke="#646464"/>
<line x1="18.584" y1="57.2774" x2="16.584" y2="54.2774" stroke="#646464"/>
<line x1="27.2428" y1="55.5629" x2="36.2428" y2="60.5629" stroke="#FEE600"/>
<line x1="24.2428" y1="59.5629" x2="33.2428" y2="64.5629" stroke="#FEE600"/>
<line x1="31.2236" y1="52.5528" x2="37.2236" y2="55.5528" stroke="#FEE600"/>
<line x1="22.2481" y1="63.5659" x2="29.2481" y2="67.5659" stroke="#FEE600"/>
<path d="M34.0154 53.205L34.4249 52.4958L29.0963 49.4193L28.6868 50.1285L30.0993 50.944C29.2133 52.3805 28.2338 53.9651 26.1719 53.9385C26.2793 54.1864 26.3601 54.5645 26.3572 54.8215C27.8768 54.7935 28.9188 53.9968 29.7542 52.9838L31.7729 54.1493C30.9572 55.4081 30.5172 55.9462 30.2721 56.0067C30.1548 56.0279 30.069 55.9945 29.9417 55.921C29.7598 55.816 29.3476 55.578 28.9503 55.3002C28.9682 55.5772 28.8962 55.9398 28.7954 56.1564C29.185 56.4056 29.5998 56.6532 29.8537 56.7594C30.144 56.8866 30.373 56.9379 30.6774 56.8308C31.0678 56.7005 31.5944 56.0265 32.7598 54.2179C32.8244 54.134 32.9635 53.9071 32.9635 53.9071L30.2416 52.3356C30.4609 52.0258 30.6655 51.6993 30.8631 51.385L34.0154 53.205ZM29.0831 61.8882L29.4856 61.191L24.0417 58.048L23.6392 58.7452L25.9732 60.0927L25.6407 60.6686L23.5492 59.4611L21.2462 63.45L21.9494 63.856L23.8674 60.5339L25.2557 61.3354L24.3912 62.8328L23.9668 62.5878L24.6423 61.4178L24.0422 61.0713L22.7612 63.29L23.3613 63.6365L23.6063 63.2122L25.1764 64.1187L25.0049 64.4157L25.6415 64.7832L26.849 62.6918L26.2124 62.3243L25.5369 63.4943L25.0944 63.2388L25.9589 61.7414L27.4017 62.5744L25.9142 65.1508C25.8617 65.2418 25.8139 65.2546 25.7108 65.1951C25.6103 65.1451 25.2769 64.9526 24.9904 64.763C24.9893 64.9887 24.9375 65.3306 24.8628 65.5299C25.32 65.802 25.6604 65.9824 25.9563 66.0158C26.2462 66.0458 26.4205 65.9119 26.6165 65.5725L28.496 62.3171L26.3439 61.0746L26.6764 60.4987L29.0831 61.8882Z" fill="black"/>
</svg>
