<svg width="498" height="366" viewBox="0 0 498 366" fill="none" xmlns="http://www.w3.org/2000/svg">
<path d="M362.131 74.9155L364.592 75.7959L367.169 75.3598L396.003 70.4802L428.06 89.8831L435.297 106.911L435.877 108.276L436.828 109.414L454.735 130.832L365.207 183.092L275.467 136.704L315.874 58.3648L362.131 74.9155Z" fill="#F7FFAB" stroke="#F3C845" stroke-width="20"/>
<path d="M381 207.5C381 258.654 334.725 301 276.5 301C218.275 301 172 258.654 172 207.5C172 156.346 218.275 114 276.5 114C334.725 114 381 156.346 381 207.5Z" fill="#F3C845" stroke="#F3C845" stroke-width="10"/>
<path d="M330 233.5C330 284.654 283.725 327 225.5 327C167.275 327 121 284.654 121 233.5C121 182.346 167.275 140 225.5 140C283.725 140 330 182.346 330 233.5Z" fill="#F3C845" stroke="#F3C845" stroke-width="10"/>
<path d="M340 213C340 267.437 293.46 312 235.5 312C177.54 312 131 267.437 131 213C131 158.563 177.54 114 235.5 114C293.46 114 340 158.563 340 213Z" fill="#F3C845" stroke="#F3C845" stroke-width="10"/>
<path d="M349 210.5C349 263.704 304.992 307 250.5 307C196.008 307 152 263.704 152 210.5C152 157.296 196.008 114 250.5 114C304.992 114 349 157.296 349 210.5Z" fill="#F3C845" stroke="#F3C845" stroke-width="10"/>
<path d="M267 250.5C267 300.264 233.506 339 194 339C154.494 339 121 300.264 121 250.5C121 200.736 154.494 162 194 162C233.506 162 267 200.736 267 250.5Z" fill="#F3C845" stroke="#F3C845" stroke-width="10"/>
<path d="M391 232C391 286.434 354.169 329 310.5 329C266.831 329 230 286.434 230 232C230 177.566 266.831 135 310.5 135C354.169 135 391 177.566 391 232Z" fill="#F3C845" stroke="#F3C845" stroke-width="10"/>
<path d="M395 252C395 306.434 358.169 349 314.5 349C270.831 349 234 306.434 234 252C234 197.566 270.831 155 314.5 155C358.169 155 395 197.566 395 252Z" fill="#F3C845" stroke="#F3C845" stroke-width="10"/>
<path d="M391 276C391 296.182 377.254 315.323 353.166 329.688C329.182 343.992 295.724 353 258.5 353C221.276 353 187.818 343.992 163.834 329.688C139.746 315.323 126 296.182 126 276C126 255.818 139.746 236.677 163.834 222.312C187.818 208.008 221.276 199 258.5 199C295.724 199 329.182 208.008 353.166 222.312C377.254 236.677 391 255.818 391 276Z" fill="#F3C845" stroke="#F3C845" stroke-width="10"/>
<path d="M405 273C405 293.182 391.254 312.323 367.166 326.688C343.182 340.992 309.724 350 272.5 350C235.276 350 201.818 340.992 177.834 326.688C153.746 312.323 140 293.182 140 273C140 252.818 153.746 233.677 177.834 219.312C201.818 205.008 235.276 196 272.5 196C309.724 196 343.182 205.008 367.166 219.312C391.254 233.677 405 252.818 405 273Z" fill="#F3C845" stroke="#F3C845" stroke-width="10"/>
<path d="M405 284C405 304.093 390.805 323.243 365.769 337.649C340.868 351.978 306.136 361 267.5 361C228.864 361 194.132 351.978 169.231 337.649C144.195 323.243 130 304.093 130 284C130 263.907 144.195 244.758 169.231 230.351C194.132 216.022 228.864 207 267.5 207C306.136 207 340.868 216.022 365.769 230.351C390.805 244.758 405 263.907 405 284Z" fill="#F3C845" stroke="#F3C845" stroke-width="10"/>
<path d="M353 281.5C353 302.447 339.166 322.207 315.109 336.991C291.135 351.724 257.698 361 220.5 361C183.302 361 149.865 351.724 125.891 336.991C101.834 322.207 88 302.447 88 281.5C88 260.553 101.834 240.793 125.891 226.009C149.865 211.276 183.302 202 220.5 202C257.698 202 291.135 211.276 315.109 226.009C339.166 240.793 353 260.553 353 281.5Z" fill="#F3C845" stroke="#F3C845" stroke-width="10"/>
<path d="M362 263.5C362 286.252 347.883 307.505 323.699 323.308C299.56 339.081 265.916 349 228.5 349C191.084 349 157.44 339.081 133.301 323.308C109.117 307.505 95 286.252 95 263.5C95 240.748 109.117 219.495 133.301 203.692C157.44 187.919 191.084 178 228.5 178C265.916 178 299.56 187.919 323.699 203.692C347.883 219.495 362 240.748 362 263.5Z" fill="#F3C845" stroke="#F3C845" stroke-width="10"/>
<line x1="158.471" y1="184.661" x2="226.471" y2="137.661" stroke="#F3C845" stroke-width="30"/>
<ellipse cx="225" cy="249" rx="90" ry="85" fill="#F7FFAB"/>
<ellipse cx="325" cy="247.5" rx="57" ry="84.5" fill="#F7FFAB"/>
<ellipse cx="268.5" cy="303.5" rx="94.5" ry="37.5" fill="#F7FFAB"/>
<ellipse cx="261" cy="213" rx="90" ry="85" fill="#F7FFAB"/>
<ellipse cx="264" cy="206" rx="90" ry="85" fill="#F7FFAB"/>
<ellipse cx="251" cy="211.5" rx="116" ry="88.5" fill="#F7FFAB"/>
<ellipse cx="220" cy="227" rx="90" ry="85" fill="#F7FFAB"/>
<ellipse cx="208.5" cy="274" rx="106.5" ry="72" fill="#F7FFAB"/>
<ellipse cx="241.5" cy="276.5" rx="125.5" ry="74.5" fill="#F7FFAB"/>
<ellipse cx="234" cy="258.5" rx="127" ry="77.5" fill="#F7FFAB"/>
<ellipse cx="292" cy="213" rx="90" ry="85" fill="#F7FFAB"/>
<ellipse cx="301" cy="266.5" rx="95" ry="77.5" fill="#F7FFAB"/>
<ellipse cx="352.5" cy="243.5" rx="37.5" ry="82.5" fill="#F7FFAB"/>
<path d="M298.903 105.928L354 130L391.903 173.928" stroke="#F3C845" stroke-width="20"/>
<line x1="386" y1="184" x2="498" y2="184" stroke="#F3C845" stroke-width="20"/>
<line x1="388.628" y1="181.512" x2="475.628" y2="258.512" stroke="#F3C845" stroke-width="20"/>
<rect x="221.99" y="169" width="80" height="15" rx="7.5" transform="rotate(60 221.99 169)" fill="#F3C845"/>
<rect x="242" y="237.282" width="80" height="15" rx="7.5" transform="rotate(-60 242 237.282)" fill="#F3C845"/>
<rect x="211" y="233" width="80" height="15" rx="7.5" fill="#F3C845"/>
<rect x="211" y="258" width="80" height="15" rx="7.5" fill="#F3C845"/>
<rect x="244" y="303" width="60" height="15" rx="7.5" transform="rotate(-90 244 303)" fill="#F3C845"/>
<path d="M0 82.7314L64.1102 59.6101L82.7315 -4.66704e-05L101.61 59.6101L161.22 78.4888L101.61 98.6101L78.4889 161.22L64.1102 98.6101L0 82.7314Z" fill="#F7FFAB"/>
</svg>
