<svg width="108" height="67" viewBox="0 0 108 67" fill="none" xmlns="http://www.w3.org/2000/svg">
<g filter="url(#filter0_d)">
<ellipse cx="51.9886" cy="29.2629" rx="50" ry="25" transform="rotate(-5 51.9886 29.2629)" fill="#FFE7EA"/>
<path d="M26.6021 40.8945L81.3112 36.1081" stroke="#CD6171" stroke-width="2"/>
<path d="M35.2109 35.932L36.4801 35.821L36.2556 33.2548L36.1117 31.9323C36.8439 32.4303 37.5972 32.6877 38.2806 32.6279C40.024 32.4754 41.4415 30.8476 41.2145 28.2535C41.0108 25.9244 39.8166 24.483 37.8641 24.6538C36.9854 24.7307 36.1786 25.3072 35.544 25.9249L35.5022 25.9285L35.3149 25.0736L34.2689 25.1651L35.2109 35.932ZM37.9787 31.5862C37.4766 31.6302 36.7889 31.4795 36.0542 30.9536L35.7065 26.9787C36.3859 26.2307 37.0096 25.8107 37.6512 25.7546C39.0877 25.6289 39.7444 26.7098 39.8908 28.3834C40.0555 30.2662 39.2339 31.4764 37.9787 31.5862ZM46.5387 31.9054C48.3936 31.7431 49.9264 30.1474 49.7068 27.637C49.4859 25.1127 47.6981 23.7935 45.8432 23.9558C43.9883 24.118 42.4568 25.7276 42.6776 28.252C42.8972 30.7624 44.6838 32.0677 46.5387 31.9054ZM46.446 30.8454C45.135 30.9601 44.1551 29.8794 44.0026 28.1361C43.85 26.3927 44.625 25.1304 45.9359 25.0157C47.2469 24.901 48.2432 26.0084 48.3958 27.7517C48.5483 29.4951 47.757 30.7307 46.446 30.8454ZM52.038 31.2416L53.3072 31.1305L52.6446 23.5575L51.3755 23.6685L52.038 31.2416ZM51.8804 22.0503C52.3824 22.0064 52.7018 21.6412 52.6567 21.1252C52.614 20.637 52.236 20.3328 51.7339 20.3767C51.2319 20.4207 50.9125 20.7859 50.9552 21.274C51.0003 21.79 51.3783 22.0943 51.8804 22.0503ZM55.8788 30.9055L57.148 30.7945L56.6672 25.2995C57.3672 24.4653 57.863 24.0284 58.644 23.9601C59.6482 23.8723 60.133 24.4341 60.2574 25.8567L60.6625 30.487L61.9317 30.376L61.512 25.5783C61.3424 23.6397 60.5268 22.6711 58.9369 22.8102C57.9048 22.9005 57.1739 23.5406 56.5109 24.3154L56.469 24.319L56.2623 23.241L55.2163 23.3325L55.8788 30.9055ZM66.8056 30.1323C67.2658 30.092 67.7557 29.9086 68.1759 29.7313L67.8419 28.8049C67.5994 28.9245 67.2592 29.0526 66.9942 29.0758C66.1156 29.1527 65.7763 28.6483 65.6946 27.7139L65.3249 23.488L67.3751 23.3087L67.2848 22.2766L65.2346 22.456L65.0479 20.3221L63.9879 20.4149L64.0212 22.5621L62.8419 22.7356L62.926 23.6979L64.0557 23.5991L64.423 27.797C64.5548 29.3033 65.1878 30.2738 66.8056 30.1323Z" fill="#CD6171"/>
</g>
<defs>
<filter id="filter0_d" x="-4" y="0" width="111.977" height="66.5253" filterUnits="userSpaceOnUse" color-interpolation-filters="sRGB">
<feFlood flood-opacity="0" result="BackgroundImageFix"/>
<feColorMatrix in="SourceAlpha" type="matrix" values="0 0 0 0 0 0 0 0 0 0 0 0 0 0 0 0 0 0 127 0"/>
<feOffset dy="4"/>
<feGaussianBlur stdDeviation="2"/>
<feColorMatrix type="matrix" values="0 0 0 0 0 0 0 0 0 0 0 0 0 0 0 0 0 0 0.25 0"/>
<feBlend mode="normal" in2="BackgroundImageFix" result="effect1_dropShadow"/>
<feBlend mode="normal" in="SourceGraphic" in2="effect1_dropShadow" result="shape"/>
</filter>
</defs>
</svg>
