<svg width="108" height="67" viewBox="0 0 108 67" fill="none" xmlns="http://www.w3.org/2000/svg">
<g filter="url(#filter0_d)">
<ellipse cx="51.9886" cy="29.2629" rx="50" ry="25" transform="rotate(-5 51.9886 29.2629)" fill="#FFEAC1"/>
<path d="M26.6021 40.8945L81.3112 36.1081" stroke="#CD6171" stroke-width="2"/>
<path d="M31.2109 34.932L32.4801 34.821L32.2556 32.2548L32.1117 30.9323C32.8439 31.4303 33.5972 31.6877 34.2806 31.6279C36.024 31.4754 37.4415 29.8476 37.2145 27.2535C37.0108 24.9244 35.8166 23.483 33.8641 23.6538C32.9854 23.7307 32.1786 24.3072 31.544 24.9249L31.5022 24.9285L31.3149 24.0736L30.2689 24.1651L31.2109 34.932ZM33.9787 30.5862C33.4766 30.6302 32.7889 30.4795 32.0542 29.9536L31.7065 25.9787C32.3859 25.2307 33.0096 24.8107 33.6512 24.7546C35.0877 24.6289 35.7444 25.7098 35.8908 27.3834C36.0555 29.2662 35.2339 30.4764 33.9787 30.5862ZM42.5387 30.9054C44.3936 30.7431 45.9264 29.1474 45.7068 26.637C45.4859 24.1127 43.6981 22.7935 41.8432 22.9558C39.9883 23.118 38.4568 24.7276 38.6776 27.252C38.8972 29.7624 40.6838 31.0677 42.5387 30.9054ZM42.446 29.8454C41.135 29.9601 40.1551 28.8794 40.0026 27.1361C39.85 25.3927 40.625 24.1304 41.9359 24.0157C43.2469 23.901 44.2432 25.0084 44.3958 26.7517C44.5483 28.4951 43.757 29.7307 42.446 29.8454ZM48.038 30.2416L49.3072 30.1305L48.6446 22.5575L47.3755 22.6685L48.038 30.2416ZM47.8804 21.0503C48.3824 21.0064 48.7018 20.6412 48.6567 20.1252C48.614 19.637 48.236 19.3328 47.7339 19.3767C47.2319 19.4207 46.9125 19.7859 46.9552 20.274C47.0003 20.79 47.3783 21.0943 47.8804 21.0503ZM51.8788 29.9055L53.148 29.7945L52.6672 24.2995C53.3672 23.4653 53.863 23.0284 54.644 22.9601C55.6482 22.8723 56.133 23.4341 56.2574 24.8567L56.6625 29.487L57.9317 29.376L57.512 24.5783C57.3424 22.6397 56.5268 21.6711 54.9369 21.8102C53.9048 21.9005 53.1739 22.5406 52.5109 23.3154L52.469 23.319L52.2623 22.241L51.2163 22.3325L51.8788 29.9055ZM62.8056 29.1323C63.2658 29.092 63.7557 28.9086 64.1759 28.7313L63.8419 27.8049C63.5994 27.9245 63.2592 28.0526 62.9942 28.0758C62.1156 28.1527 61.7763 27.6483 61.6946 26.7139L61.3249 22.488L63.3751 22.3087L63.2848 21.2766L61.2346 21.456L61.0479 19.3221L59.9879 19.4149L60.0212 21.5621L58.8419 21.7356L58.926 22.6979L60.0557 22.5991L60.423 26.797C60.5548 28.3033 61.1878 29.2738 62.8056 29.1323ZM65.6063 28.7045L71.2129 28.214L71.1202 27.1541L69.07 27.3334L68.2927 18.4494L67.3165 18.5348C66.7879 18.9183 66.1531 19.2128 65.26 19.4455L65.332 20.2683L67.1451 20.1097L67.7869 27.4457L65.5136 27.6446L65.6063 28.7045Z" fill="#CD6171"/>
</g>
<defs>
<filter id="filter0_d" x="-4" y="0" width="111.977" height="66.5253" filterUnits="userSpaceOnUse" color-interpolation-filters="sRGB">
<feFlood flood-opacity="0" result="BackgroundImageFix"/>
<feColorMatrix in="SourceAlpha" type="matrix" values="0 0 0 0 0 0 0 0 0 0 0 0 0 0 0 0 0 0 127 0"/>
<feOffset dy="4"/>
<feGaussianBlur stdDeviation="2"/>
<feColorMatrix type="matrix" values="0 0 0 0 0 0 0 0 0 0 0 0 0 0 0 0 0 0 0.25 0"/>
<feBlend mode="normal" in2="BackgroundImageFix" result="effect1_dropShadow"/>
<feBlend mode="normal" in="SourceGraphic" in2="effect1_dropShadow" result="shape"/>
</filter>
</defs>
</svg>
