<svg width="134" height="24" viewBox="0 0 134 24" fill="none" xmlns="http://www.w3.org/2000/svg">
<path d="M70.984 13.656V1.08H63.016V13.656H58.816V13.68L67 23.04L75.184 13.68V13.656H70.984ZM60.784 14.544H63.904V1.968H70.096V14.544H73.216V14.592L67 21.696L60.784 14.592V14.544Z" fill="#FFA0AE"/>
<path d="M125.984 13.656V1.08H118.016V13.656H113.816V13.68L122 23.04L130.184 13.68V13.656H125.984ZM115.784 14.544H118.904V1.968H125.096V14.544H128.216V14.592L122 21.696L115.784 14.592V14.544Z" fill="#FFA0AE"/>
<path d="M15.984 13.656V1.08H8.016V13.656H3.816V13.68L12 23.04L20.184 13.68V13.656H15.984ZM5.784 14.544H8.904V1.968H15.096V14.544H18.216V14.592L12 21.696L5.784 14.592V14.544Z" fill="#FFA0AE"/>
</svg>
