<svg width="251" height="322" fill="none" xmlns="http://www.w3.org/2000/svg"><path d="M63.685 85.464c-.677-3.055 2.689-5.395 5.317-3.696l70.101 45.309a3.5 3.5 0 011.499 2.106l39.45 160.931c.795 3.244-2.971 5.652-5.582 3.57l-77.567-61.859a3.5 3.5 0 01-1.235-1.98L63.685 85.464z" fill="#FEE600" stroke="#000" stroke-width="3"/><path d="M141.135 126.523l41.611-76.72c1.558-2.872 5.855-2.231 6.506.971l30.533 150.068a3.508 3.508 0 01-.208 2.066l-37.755 88.899c-1.337 3.15-5.935 2.706-6.645-.642l-34.389-162.247a3.51 3.51 0 01.347-2.395z" fill="#016E51" stroke="#000" stroke-width="3"/><path stroke="#FFA0AE" stroke-width="10" d="M39.826 51.864l-28-23M29 72H0m56.34-34.188l-14-36"/></svg>