<svg width="64" height="76" fill="none" xmlns="http://www.w3.org/2000/svg"><path d="M57.5 53c0 5.175-1.215 9.835-3.154 13.184C52.398 69.547 49.784 71.5 47 71.5s-5.399-1.953-7.346-5.316C37.715 62.835 36.5 58.175 36.5 53c0-5.175 1.215-9.835 3.154-13.184C41.602 36.453 44.216 34.5 47 34.5s5.399 1.953 7.346 5.316C56.285 43.165 57.5 47.825 57.5 53zm-32 0c0 5.175-1.215 9.835-3.154 13.184C20.399 69.547 17.784 71.5 15 71.5s-5.399-1.953-7.345-5.316C5.715 62.835 4.5 58.175 4.5 53c0-5.175 1.215-9.835 3.155-13.184C9.6 36.453 12.216 34.5 15 34.5s5.399 1.953 7.346 5.316C24.285 43.165 25.5 47.825 25.5 53z" fill="#fff" stroke="#646464"/><path d="M62.5 32c0 5.19-.997 9.863-2.588 13.221C58.304 48.617 56.18 50.5 54 50.5c-2.18 0-4.303-1.883-5.912-5.279C46.498 41.863 45.5 37.19 45.5 32c0-5.19.997-9.863 2.588-13.221C49.696 15.383 51.82 13.5 54 13.5c2.18 0 4.303 1.883 5.912 5.279C61.502 22.137 62.5 26.811 62.5 32z" fill="#fff" stroke="#646464"/><path d="M55.5 49.5c0 10.385-10.846 19-24.5 19s-24.5-8.615-24.5-19 10.846-19 24.5-19 24.5 8.615 24.5 19z" fill="#fff" stroke="#646464"/><path d="M49.5 43c0 3.365-2.099 6.477-5.63 8.773C40.343 54.066 35.44 55.5 30 55.5c-5.44 0-10.343-1.434-13.87-3.727C12.6 49.477 10.5 46.365 10.5 43c0-3.365 2.099-6.477 5.63-8.773C19.657 31.934 24.56 30.5 30 30.5c5.44 0 10.343 1.434 13.87 3.727C47.4 36.523 49.5 39.635 49.5 43z" fill="red" stroke="#FFA0AE"/><path d="M50.5 31c0 3.365-2.099 6.477-5.63 8.773C41.343 42.066 36.44 43.5 31 43.5c-5.44 0-10.343-1.434-13.87-3.727C13.6 37.477 11.5 34.365 11.5 31c0-3.365 2.099-6.477 5.63-8.773C20.657 19.934 25.56 18.5 31 18.5c5.44 0 10.343 1.434 13.87 3.727C48.4 24.523 50.5 27.635 50.5 31z" fill="red" stroke="#FFA0AE"/><path d="M37.633 62.18c-2.057 3.565-4.974 6.16-8.006 7.487-3.031 1.327-6.142 1.376-8.656-.076-2.514-1.451-4.027-4.17-4.394-7.459-.366-3.289.423-7.112 2.48-10.676 2.058-3.564 4.975-6.16 8.006-7.486 3.032-1.328 6.143-1.376 8.657.075 2.514 1.452 4.027 4.17 4.393 7.46.367 3.288-.422 7.112-2.48 10.676z" fill="#F7FFAB" stroke="#FEE600"/><path d="M35.667 61.184c-1.721 2.982-4.138 5.161-6.633 6.288-2.495 1.126-5.027 1.186-7.052.017-2.025-1.169-3.239-3.392-3.51-6.116-.272-2.723.407-5.906 2.128-8.887 1.721-2.981 4.138-5.161 6.633-6.287 2.495-1.127 5.027-1.187 7.052-.018 2.025 1.169 3.239 3.392 3.51 6.116.272 2.724-.407 5.906-2.128 8.888z" fill="#F7FFAB" stroke="#FEE600"/><path d="M22.78 39.456c2.068 3.583 3.071 7.3 3.041 10.401-.03 3.113-1.091 5.503-3.028 6.622-1.937 1.118-4.537.842-7.249-.689-2.7-1.524-5.418-4.251-7.487-7.834-2.068-3.583-3.07-7.301-3.041-10.401.03-3.114 1.091-5.504 3.028-6.622 1.937-1.118 4.538-.843 7.249.688 2.7 1.525 5.418 4.252 7.487 7.835z" fill="#fff" stroke="#646464"/><path d="M20 0l6.928 11.25H13.072L20 0z" fill="#8A510D"/><path d="M20 4l6.928 11.25H13.072L20 4z" fill="#fff"/><path d="M42 0l6.928 11.25H35.072L42 0z" fill="#8A510D"/><path d="M42 4l6.928 11.25H35.072L42 4z" fill="#fff"/><path d="M63.5 18.5c0 1.279-.85 2.517-2.397 3.462-1.538.94-3.694 1.538-6.103 1.538s-4.565-.598-6.103-1.538C47.35 21.017 46.5 19.78 46.5 18.5c0-1.279.85-2.517 2.397-3.462C50.435 14.098 52.59 13.5 55 13.5s4.565.598 6.103 1.538c1.547.945 2.397 2.183 2.397 3.462z" fill="#fff" stroke="#646464"/><path stroke="#646464" d="M60.5 22v-3m-10 4v-4m5 4v-4"/><path d="M55.5 70.5c0 1.279-.85 2.517-2.397 3.462-1.538.94-3.694 1.538-6.103 1.538s-4.565-.598-6.103-1.538C39.35 73.017 38.5 71.78 38.5 70.5c0-1.279.85-2.517 2.397-3.462C42.435 66.098 44.59 65.5 47 65.5s4.565.598 6.103 1.538c1.547.945 2.397 2.183 2.397 3.462z" fill="#fff" stroke="#646464"/><path stroke="#646464" d="M52.5 74v-3m-10 4v-4m5 4v-4"/><path d="M23.5 70.5c0 1.279-.85 2.517-2.397 3.462-1.538.94-3.694 1.538-6.103 1.538s-4.565-.598-6.103-1.538C7.35 73.017 6.5 71.78 6.5 70.5c0-1.279.85-2.517 2.397-3.462C10.435 66.098 12.59 65.5 15 65.5s4.565.598 6.103 1.538c1.547.945 2.397 2.183 2.397 3.462z" fill="#fff" stroke="#646464"/><path stroke="#646464" d="M20.5 74v-3m-10 4v-4m5 4v-4"/><path d="M53.5 22.5c0 4.643-2.472 8.882-6.54 11.977C42.894 37.57 37.253 39.5 31 39.5c-6.252 0-11.893-1.929-15.96-5.023C10.971 31.382 8.5 27.143 8.5 22.5c0-4.643 2.472-8.882 6.54-11.976C19.106 7.428 24.747 5.5 31 5.5c6.252 0 11.893 1.929 15.96 5.024 4.068 3.094 6.54 7.333 6.54 11.976z" fill="#fff" stroke="#646464"/><ellipse cx="20.5" cy="19.5" rx="1.5" ry="3.5" fill="#000"/><ellipse cx="40.5" cy="19.5" rx="1.5" ry="3.5" fill="#000"/><path d="M30.5 27l3.897-3.75h-7.794L30.5 27z" fill="#8A510D"/><path d="M30.5 29l1.299 2.25h-2.598L30.5 29z" fill="#000"/><ellipse cx="31" cy="11" rx="10" ry="6" fill="#8A510D"/><ellipse cx="56.5" cy="31.5" rx="5.5" ry="4.5" fill="#8A510D"/><ellipse cx="14.502" cy="44.436" rx="7.292" ry="4.375" transform="rotate(-30 14.502 44.436)" fill="#8A510D"/><ellipse cx="31" cy="10.5" rx="8" ry="4.5" fill="#FFA558"/><ellipse cx="56.5" cy="31.5" rx="4.5" ry="3.5" fill="#FFA558"/><ellipse cx="14.502" cy="44.069" rx="5.833" ry="3.281" transform="rotate(-30 14.502 44.07)" fill="#FFA558"/><path stroke="#000" d="M30.5 26v5"/><circle cx="32.5" cy="44.5" r="4" fill="#FFD583" stroke="#8A510D"/><path stroke="#8A510D" d="M29 44.5h7"/><path stroke="#FFD583" d="M32.5 49v-2"/><circle cx="32.5" cy="46.5" r="1.5" fill="#8A510D"/><path d="M30 31c0 .263-.104.523-.305.765-.2.243-.495.463-.867.65a5.354 5.354 0 01-1.297.433c-.486.1-1.006.152-1.531.152a7.604 7.604 0 01-1.53-.152 5.354 5.354 0 01-1.298-.434c-.372-.186-.666-.406-.867-.649-.201-.242-.305-.502-.305-.765h8z" fill="#000"/><path d="M30 30c0 .263-.104.523-.305.765-.2.243-.495.463-.867.65a5.354 5.354 0 01-1.297.433c-.486.1-1.006.152-1.531.152a7.604 7.604 0 01-1.53-.152 5.354 5.354 0 01-1.298-.434c-.372-.186-.666-.406-.867-.649-.201-.242-.305-.502-.305-.765h8z" fill="#fff"/><path d="M39 31c0 .263-.103.523-.304.765-.201.243-.496.463-.868.65a5.354 5.354 0 01-1.297.433c-.486.1-1.006.152-1.531.152a7.604 7.604 0 01-1.53-.152 5.354 5.354 0 01-1.298-.434c-.372-.186-.666-.406-.867-.649-.201-.242-.305-.502-.305-.765h8z" fill="#000"/><path d="M39 30c0 .263-.103.523-.304.765-.201.243-.496.463-.868.65a5.354 5.354 0 01-1.297.433c-.486.1-1.006.152-1.531.152a7.604 7.604 0 01-1.53-.152 5.354 5.354 0 01-1.298-.434c-.372-.186-.666-.406-.867-.649-.201-.242-.305-.502-.305-.765h8z" fill="#fff"/><path stroke="#000" d="M16 23.5H9m.166-4.596l6.947 1.608m-6.164 6.991l5.947-.608M45 23.5h8"/><path transform="matrix(-.98009 .19856 .2558 .96673 52.94 19.39)" stroke="#000" d="M0-.5h8.1"/><path transform="matrix(-.99602 -.08912 -.11608 .99324 51.857 28)" stroke="#000" d="M0-.5h6.824"/><path stroke="#646464" d="M22.6 56.3l-3-4m5.984.977l-2-3m-5 7l-2-3"/><path stroke="#FEE600" d="M27.243 55.563l9 5m-12-1l9 5m-2.019-12.01l6 3m-14.976 8.013l7 4"/><path d="M34.015 53.205l.41-.71-5.329-3.076-.41.71 1.413.815c-.886 1.436-1.865 3.021-3.927 2.994.107.248.188.627.185.883 1.52-.027 2.562-.824 3.397-1.837l2.019 1.165c-.816 1.26-1.256 1.797-1.5 1.858-.118.02-.204-.012-.331-.086a13.759 13.759 0 01-.992-.62 2 2 0 01-.155.855c.39.25.805.497 1.059.603.29.128.519.179.823.072.39-.13.917-.805 2.083-2.613.064-.084.204-.31.204-.31l-2.722-1.572c.219-.31.424-.637.621-.951l3.152 1.82zm-4.932 8.683l.403-.697-5.444-3.143-.403.697 2.334 1.348-.332.576-2.092-1.208-2.303 3.989.703.406 1.918-3.322 1.389.801-.865 1.498-.424-.245.675-1.17-.6-.347-1.28 2.219.6.346.244-.424 1.57.907-.171.297.637.367 1.207-2.091-.637-.368-.675 1.17-.443-.255.865-1.498 1.443.833-1.488 2.577c-.052.09-.1.104-.203.044-.1-.05-.434-.242-.72-.432a2.633 2.633 0 01-.128.767c.457.272.797.452 1.093.486.29.03.465-.104.66-.444l1.88-3.255-2.152-1.242.332-.576 2.407 1.39z" fill="#000"/></svg>