<svg width="498" height="366" fill="none" xmlns="http://www.w3.org/2000/svg"><path d="M362.131 74.915l2.461.88 2.577-.435 28.834-4.88 32.057 19.403 7.237 17.028.58 1.365.951 1.138 17.907 21.418-89.528 52.26-89.74-46.388 40.407-78.34 46.257 16.551z" fill="#F7FFAB" stroke="#F3C845" stroke-width="20"/><path d="M381 207.5c0 51.154-46.275 93.5-104.5 93.5S172 258.654 172 207.5 218.275 114 276.5 114 381 156.346 381 207.5z" fill="#F3C845" stroke="#F3C845" stroke-width="10"/><path d="M330 233.5c0 51.154-46.275 93.5-104.5 93.5S121 284.654 121 233.5 167.275 140 225.5 140 330 182.346 330 233.5z" fill="#F3C845" stroke="#F3C845" stroke-width="10"/><path d="M340 213c0 54.437-46.54 99-104.5 99S131 267.437 131 213s46.54-99 104.5-99S340 158.563 340 213z" fill="#F3C845" stroke="#F3C845" stroke-width="10"/><path d="M349 210.5c0 53.204-44.008 96.5-98.5 96.5S152 263.704 152 210.5s44.008-96.5 98.5-96.5 98.5 43.296 98.5 96.5z" fill="#F3C845" stroke="#F3C845" stroke-width="10"/><path d="M267 250.5c0 49.764-33.494 88.5-73 88.5s-73-38.736-73-88.5 33.494-88.5 73-88.5 73 38.736 73 88.5z" fill="#F3C845" stroke="#F3C845" stroke-width="10"/><path d="M391 232c0 54.434-36.831 97-80.5 97S230 286.434 230 232s36.831-97 80.5-97 80.5 42.566 80.5 97z" fill="#F3C845" stroke="#F3C845" stroke-width="10"/><path d="M395 252c0 54.434-36.831 97-80.5 97S234 306.434 234 252s36.831-97 80.5-97 80.5 42.566 80.5 97z" fill="#F3C845" stroke="#F3C845" stroke-width="10"/><path d="M391 276c0 20.182-13.746 39.323-37.834 53.688C329.182 343.992 295.724 353 258.5 353s-70.682-9.008-94.666-23.312C139.746 315.323 126 296.182 126 276c0-20.182 13.746-39.323 37.834-53.688C187.818 208.008 221.276 199 258.5 199s70.682 9.008 94.666 23.312C377.254 236.677 391 255.818 391 276z" fill="#F3C845" stroke="#F3C845" stroke-width="10"/><path d="M405 273c0 20.182-13.746 39.323-37.834 53.688C343.182 340.992 309.724 350 272.5 350s-70.682-9.008-94.666-23.312C153.746 312.323 140 293.182 140 273c0-20.182 13.746-39.323 37.834-53.688C201.818 205.008 235.276 196 272.5 196s70.682 9.008 94.666 23.312C391.254 233.677 405 252.818 405 273z" fill="#F3C845" stroke="#F3C845" stroke-width="10"/><path d="M405 284c0 20.093-14.195 39.243-39.231 53.649C340.868 351.978 306.136 361 267.5 361s-73.368-9.022-98.269-23.351C144.195 323.243 130 304.093 130 284c0-20.093 14.195-39.242 39.231-53.649C194.132 216.022 228.864 207 267.5 207s73.368 9.022 98.269 23.351C390.805 244.758 405 263.907 405 284z" fill="#F3C845" stroke="#F3C845" stroke-width="10"/><path d="M353 281.5c0 20.947-13.834 40.707-37.891 55.491C291.135 351.724 257.698 361 220.5 361c-37.198 0-70.635-9.276-94.609-24.009C101.834 322.207 88 302.447 88 281.5c0-20.947 13.834-40.707 37.891-55.491C149.865 211.276 183.302 202 220.5 202c37.198 0 70.635 9.276 94.609 24.009C339.166 240.793 353 260.553 353 281.5z" fill="#F3C845" stroke="#F3C845" stroke-width="10"/><path d="M362 263.5c0 22.752-14.117 44.005-38.301 59.808C299.56 339.081 265.916 349 228.5 349s-71.06-9.919-95.199-25.692C109.117 307.505 95 286.252 95 263.5c0-22.752 14.117-44.005 38.301-59.808C157.44 187.919 191.084 178 228.5 178s71.06 9.919 95.199 25.692C347.883 219.495 362 240.748 362 263.5z" fill="#F3C845" stroke="#F3C845" stroke-width="10"/><path stroke="#F3C845" stroke-width="30" d="M158.471 184.661l68-47"/><ellipse cx="225" cy="249" rx="90" ry="85" fill="#F7FFAB"/><ellipse cx="325" cy="247.5" rx="57" ry="84.5" fill="#F7FFAB"/><ellipse cx="268.5" cy="303.5" rx="94.5" ry="37.5" fill="#F7FFAB"/><ellipse cx="261" cy="213" rx="90" ry="85" fill="#F7FFAB"/><ellipse cx="264" cy="206" rx="90" ry="85" fill="#F7FFAB"/><ellipse cx="251" cy="211.5" rx="116" ry="88.5" fill="#F7FFAB"/><ellipse cx="220" cy="227" rx="90" ry="85" fill="#F7FFAB"/><ellipse cx="208.5" cy="274" rx="106.5" ry="72" fill="#F7FFAB"/><ellipse cx="241.5" cy="276.5" rx="125.5" ry="74.5" fill="#F7FFAB"/><ellipse cx="234" cy="258.5" rx="127" ry="77.5" fill="#F7FFAB"/><ellipse cx="292" cy="213" rx="90" ry="85" fill="#F7FFAB"/><ellipse cx="301" cy="266.5" rx="95" ry="77.5" fill="#F7FFAB"/><ellipse cx="352.5" cy="243.5" rx="37.5" ry="82.5" fill="#F7FFAB"/><path d="M298.903 105.928L354 130l37.903 43.928M386 184h112m-109.372-2.488l87 77" stroke="#F3C845" stroke-width="20"/><rect x="221.99" y="169" width="80" height="15" rx="7.5" transform="rotate(60 221.99 169)" fill="#F3C845"/><rect x="242" y="237.282" width="80" height="15" rx="7.5" transform="rotate(-60 242 237.282)" fill="#F3C845"/><rect x="211" y="233" width="80" height="15" rx="7.5" fill="#F3C845"/><rect x="211" y="258" width="80" height="15" rx="7.5" fill="#F3C845"/><rect x="244" y="303" width="60" height="15" rx="7.5" transform="rotate(-90 244 303)" fill="#F3C845"/><path d="M0 82.731l64.11-23.12L82.731 0l18.879 59.61 59.61 18.879-59.61 20.121-23.121 62.61L64.11 98.61 0 82.731z" fill="#F7FFAB"/></svg>