<svg width="306" height="58" fill="none" xmlns="http://www.w3.org/2000/svg"><g clip-path="url(#clip0)" fill-rule="evenodd" clip-rule="evenodd"><path d="M0 14h45.372v44H0V14zm15.828 22L0 58V14.008L15.828 36zm244.8-22H306v44h-45.372V14zm29.544 22L306 58V14.008L290.172 36z" fill="#F8878C"/><g filter="url(#filter0_d)"><path d="M28.49 7.173a1676.302 1676.302 0 01249.02 0L273.866 51a1627.317 1627.317 0 00-241.732 0L28.49 7.173" fill="#F8878C"/><path d="M28.49 7.173a1676.302 1676.302 0 01249.02 0L273.866 51a1627.317 1627.317 0 00-241.732 0L28.49 7.173" fill="url(#paint0_linear)" fill-opacity=".2"/></g></g><defs><linearGradient id="paint0_linear" x1="28.49" y1="27" x2="277.51" y2="27" gradientUnits="userSpaceOnUse"><stop stop-opacity=".25"/><stop offset="1" stop-color="#fff" stop-opacity="0"/></linearGradient><clipPath id="clip0"><path fill="#fff" d="M0 0h306v58H0z"/></clipPath><filter id="filter0_d" x="25.018" y="-.197" width="257.965" height="57.401" filterUnits="userSpaceOnUse" color-interpolation-filters="sRGB"><feFlood flood-opacity="0" result="BackgroundImageFix"/><feColorMatrix in="SourceAlpha" values="0 0 0 0 0 0 0 0 0 0 0 0 0 0 0 0 0 0 127 0"/><feOffset dx="1" dy="1.732"/><feGaussianBlur stdDeviation="2.236"/><feColorMatrix values="0 0 0 0 0 0 0 0 0 0 0 0 0 0 0 0 0 0 0.25 0"/><feBlend in2="BackgroundImageFix" result="effect1_dropShadow"/><feBlend in="SourceGraphic" in2="effect1_dropShadow" result="shape"/></filter></defs></svg>