<svg width="108" height="67" fill="none" xmlns="http://www.w3.org/2000/svg"><g filter="url(#filter0_d)"><ellipse cx="51.989" cy="29.263" rx="50" ry="25" transform="rotate(-5 51.989 29.263)" fill="#FFEAC1"/><path d="M26.602 40.895l54.71-4.787" stroke="#CD6171" stroke-width="2"/><path d="M31.21 34.932l1.27-.111-.224-2.566-.144-1.323c.732.498 1.485.756 2.169.696 1.743-.153 3.16-1.78 2.934-4.375-.204-2.329-1.398-3.77-3.35-3.6-.88.078-1.686.654-2.321 1.272l-.042.003-.187-.854-1.046.091.942 10.767zm2.769-4.346c-.502.044-1.19-.106-1.925-.632l-.348-3.975c.68-.748 1.304-1.168 1.945-1.224 1.437-.126 2.093.955 2.24 2.628.165 1.883-.657 3.093-1.912 3.203zm8.56.32c1.855-.163 3.387-1.759 3.168-4.269-.221-2.524-2.009-3.843-3.864-3.681-1.855.162-3.386 1.772-3.165 4.296.22 2.51 2.006 3.816 3.86 3.653zm-.093-1.06c-1.311.114-2.29-.967-2.443-2.71-.153-1.743.622-3.006 1.933-3.12 1.31-.115 2.307.992 2.46 2.736.152 1.743-.639 2.979-1.95 3.093zm5.592.396l1.27-.111-.663-7.573-1.27.11.663 7.574zm-.158-9.192c.502-.044.822-.409.777-.925-.043-.488-.421-.792-.923-.748-.502.044-.822.409-.779.897.045.516.423.82.925.776zm3.999 8.855l1.269-.11-.48-5.496c.7-.834 1.195-1.27 1.976-1.339 1.004-.088 1.489.474 1.613 1.897l.406 4.63 1.269-.111-.42-4.798c-.17-1.938-.985-2.907-2.575-2.768-1.032.09-1.763.73-2.426 1.505l-.042.004-.207-1.078-1.046.091.663 7.573zm10.927-.773c.46-.04.95-.223 1.37-.4l-.334-.927c-.243.12-.583.248-.848.27-.878.078-1.218-.427-1.3-1.361l-.37-4.226 2.051-.18-.09-1.031-2.05.179-.187-2.134-1.06.093.033 2.147-1.18.174.085.962 1.13-.099.367 4.198c.132 1.506.765 2.477 2.383 2.335zm2.8-.428l5.607-.49-.093-1.06-2.05.18-.777-8.885-.977.086c-.528.383-1.163.678-2.056.91l.072.823 1.813-.158.642 7.336-2.273.199.092 1.06z" fill="#CD6171"/></g><defs><filter id="filter0_d" x="-4" y="0" width="111.977" height="66.525" filterUnits="userSpaceOnUse" color-interpolation-filters="sRGB"><feFlood flood-opacity="0" result="BackgroundImageFix"/><feColorMatrix in="SourceAlpha" values="0 0 0 0 0 0 0 0 0 0 0 0 0 0 0 0 0 0 127 0"/><feOffset dy="4"/><feGaussianBlur stdDeviation="2"/><feColorMatrix values="0 0 0 0 0 0 0 0 0 0 0 0 0 0 0 0 0 0 0.25 0"/><feBlend in2="BackgroundImageFix" result="effect1_dropShadow"/><feBlend in="SourceGraphic" in2="effect1_dropShadow" result="shape"/></filter></defs></svg>