<svg width="134" height="24" fill="none" xmlns="http://www.w3.org/2000/svg"><path d="M70.984 13.656V1.08h-7.968v12.576h-4.2v.024L67 23.04l8.184-9.36v-.024h-4.2zm-10.2.888h3.12V1.968h6.192v12.576h3.12v.048L67 21.696l-6.216-7.104v-.048zm65.2-.888V1.08h-7.968v12.576h-4.2v.024L122 23.04l8.184-9.36v-.024h-4.2zm-10.2.888h3.12V1.968h6.192v12.576h3.12v.048L122 21.696l-6.216-7.104v-.048zm-99.8-.888V1.08H8.016v12.576h-4.2v.024L12 23.04l8.184-9.36v-.024h-4.2zm-10.2.888h3.12V1.968h6.192v12.576h3.12v.048L12 21.696l-6.216-7.104v-.048z" fill="#FFA0AE"/></svg>